<?xml version="1.0" standalone="no"?>
<!DOCTYPE svg PUBLIC "-//W3C//DTD SVG 20010904//EN"
 "http://www.w3.org/TR/2001/REC-SVG-20010904/DTD/svg10.dtd">
<svg version="1.0" xmlns="http://www.w3.org/2000/svg"
 width="800.000000pt" height="600.000000pt" viewBox="0 0 800.000000 600.000000"
 preserveAspectRatio="xMidYMid meet">

<g transform="translate(0.000000,600.000000) scale(0.100000,-0.100000)"
fill="#000000" stroke="none">
<path d="M3889 4240 c-25 -13 -44 -35 -59 -66 l-23 -46 98 -457 c54 -251 102
-466 107 -479 6 -18 13 -22 29 -17 17 6 15 0 -14 -42 -19 -26 -45 -68 -57 -93
-81 -160 -129 -445 -101 -591 43 -214 204 -340 398 -309 123 20 208 84 260
195 25 53 28 71 28 160 0 78 -6 115 -24 170 -62 186 -226 427 -337 496 -36 22
-44 39 -19 39 21 0 21 -2 -31 505 -48 476 -50 487 -105 528 -39 28 -106 32
-150 7z m116 -26 c18 -8 40 -29 49 -47 18 -36 112 -925 98 -939 -4 -4 -31 -8
-61 -10 l-54 -3 -94 430 c-51 237 -94 447 -94 467 -2 47 22 85 64 103 41 18
52 18 92 -1z m204 -1200 c46 -92 143 -378 162 -472 14 -76 7 -207 -16 -273
-15 -45 -59 -98 -70 -87 -5 5 -155 930 -155 953 1 19 40 -41 79 -121z m-39
-344 c39 -245 73 -457 76 -472 9 -44 -23 -35 -77 21 -59 61 -105 176 -121 299
-13 108 -4 410 16 516 15 76 27 109 33 91 1 -6 34 -210 73 -455z m152 316
c132 -174 217 -391 205 -524 -10 -104 -66 -204 -137 -246 l-32 -18 15 28 c38
75 49 249 22 358 -30 118 -120 371 -161 454 l-42 83 32 -24 c17 -13 61 -63 98
-111z m-294 38 c-8 -36 -12 -153 -13 -304 0 -230 1 -250 23 -320 28 -88 61
-155 97 -199 33 -39 18 -40 -52 -5 -141 70 -210 239 -185 454 15 129 53 271
96 365 20 43 38 76 41 73 3 -2 -1 -31 -7 -64z"/>
</g>
</svg>
